<svg version="1.1" id="レイヤー_1" xmlns="http://www.w3.org/2000/svg" xmlns:xlink="http://www.w3.org/1999/xlink" x="0px"
	 y="0px" width="216px" height="60px" viewBox="0 0 216 60" enable-background="new 0 0 216 60" xml:space="preserve">
<g>
	<path fill="#40220F" d="M40.031,46.41c3.359-3.007,5.586-7.266,6.68-12.773h2.168l-0.234,20.098H22.512H4.699v-2.461
		c2.539-0.04,4.277-0.254,5.215-0.645c0.703-0.391,1.055-0.84,1.055-1.348v-37.09c-0.039-0.898-0.313-1.542-0.82-1.934
		C9.483,9.829,7.667,9.613,4.699,9.613V7.152h22.969v2.461c-2.813,0-4.532,0.176-5.156,0.527c-0.548,0.313-0.82,0.996-0.82,2.051
		v39.082C29.895,51.234,36.008,49.613,40.031,46.41z"/>
	<path fill="#40220F" d="M53.039,30.648c0.038-6.523,2.48-12.324,7.324-17.402c4.297-4.453,10.039-6.68,17.227-6.68
		c6.952,0.04,12.676,2.129,17.168,6.27c4.883,4.532,7.324,10.098,7.324,16.699c0,7.266-2.578,13.477-7.734,18.633
		c-4.298,4.14-9.961,6.211-16.992,6.211c-7.579-0.04-13.556-2.364-17.93-6.973C55.168,43.07,53.039,37.485,53.039,30.648z
		 M64.582,32.758c0.038,6.25,1.367,11.211,3.984,14.883c2.109,2.851,5.039,4.277,8.789,4.277c4.063-0.04,7.285-2.012,9.668-5.918
		c2.344-3.71,3.516-9.199,3.516-16.465c0-7.07-1.134-12.148-3.398-15.234c-2.344-3.516-5.528-5.273-9.551-5.273
		c-3.789,0.04-6.914,1.778-9.375,5.215C65.792,18.032,64.582,24.203,64.582,32.758z"/>
	<path fill="#40220F" d="M158.215,32.582c-2.578,0-4.122,0.137-4.629,0.41c-0.548,0.352-0.82,0.899-0.82,1.641v19.336h-2.461
		c-0.196-1.954-0.41-3.243-0.645-3.867c-0.234-0.586-0.548-0.879-0.938-0.879c-0.742,0.039-1.992,0.605-3.75,1.699
		c-3.398,2.304-7.324,3.457-11.777,3.457c-8.086,0-14.414-2.168-18.984-6.504c-4.961-4.492-7.441-9.844-7.441-16.055
		c0.038-7.304,2.539-13.437,7.5-18.398c4.453-4.57,10.664-6.855,18.633-6.855c3.125,0,6.172,0.43,9.141,1.289
		c2.188,0.665,3.77,0.996,4.746,0.996c0.938,0,1.386-0.762,1.348-2.285h2.461l0.879,19.805h-2.461
		c-1.797-5.585-4.16-9.921-7.09-13.008c-2.695-2.89-5.704-4.336-9.023-4.336c-4.023,0.04-7.462,2.071-10.313,6.094
		c-2.852,4.063-4.277,9.629-4.277,16.699c0.038,6.094,1.484,10.957,4.336,14.59c2.891,3.671,6.406,5.508,10.547,5.508
		c2.813,0,5.039-0.82,6.68-2.461c1.484-1.484,2.227-3.242,2.227-5.273v-9.551c0-0.82-0.293-1.367-0.879-1.641
		c-0.703-0.273-2.306-0.41-4.805-0.41v-2.461h21.797V32.582z"/>
	<path fill="#40220F" d="M162.258,30.648c0.038-6.523,2.48-12.324,7.324-17.402c4.297-4.453,10.039-6.68,17.227-6.68
		c6.952,0.04,12.676,2.129,17.168,6.27c4.883,4.532,7.324,10.098,7.324,16.699c0,7.266-2.578,13.477-7.734,18.633
		c-4.298,4.14-9.961,6.211-16.992,6.211c-7.579-0.04-13.556-2.364-17.93-6.973C164.387,43.07,162.258,37.485,162.258,30.648z
		 M173.801,32.758c0.038,6.25,1.367,11.211,3.984,14.883c2.109,2.851,5.039,4.277,8.789,4.277c4.063-0.04,7.285-2.012,9.668-5.918
		c2.344-3.71,3.516-9.199,3.516-16.465c0-7.07-1.134-12.148-3.398-15.234c-2.344-3.516-5.528-5.273-9.551-5.273
		c-3.789,0.04-6.914,1.778-9.375,5.215C175.011,18.032,173.801,24.203,173.801,32.758z"/>
</g>
</svg>
