<svg version="1.1" id="レイヤー_1" xmlns="http://www.w3.org/2000/svg" xmlns:xlink="http://www.w3.org/1999/xlink" x="0px"
	 y="0px" width="146px" height="36px" viewBox="0 0 146 36" enable-background="new 0 0 146 36" xml:space="preserve">
<g>
	<path fill="#40220F" d="M23.816,27.246c2.016-1.805,3.352-4.359,4.008-7.664h1.301l-0.141,12.059h-15.68H2.617v-1.477
		c1.523-0.023,2.566-0.152,3.129-0.387c0.422-0.234,0.633-0.504,0.633-0.809V6.715c-0.023-0.539-0.188-0.926-0.492-1.16
		c-0.398-0.258-1.488-0.387-3.27-0.387V3.691h13.781v1.477c-1.688,0-2.719,0.105-3.094,0.316c-0.328,0.188-0.492,0.598-0.492,1.23
		v23.449C17.734,30.141,21.402,29.168,23.816,27.246z"/>
	<path fill="#40220F" d="M31.621,17.789c0.023-3.914,1.488-7.395,4.395-10.441c2.578-2.672,6.023-4.008,10.336-4.008
		c4.172,0.023,7.605,1.278,10.301,3.762c2.93,2.719,4.395,6.059,4.395,10.02c0,4.359-1.547,8.086-4.641,11.18
		c-2.578,2.484-5.977,3.727-10.195,3.727c-4.547-0.023-8.133-1.418-10.758-4.184C32.898,25.242,31.621,21.891,31.621,17.789z
		 M38.547,19.055c0.023,3.75,0.82,6.727,2.391,8.93c1.266,1.711,3.023,2.566,5.273,2.566c2.438-0.023,4.371-1.207,5.801-3.551
		c1.406-2.227,2.109-5.52,2.109-9.879c0-4.242-0.68-7.289-2.039-9.141c-1.406-2.109-3.316-3.164-5.73-3.164
		c-2.273,0.023-4.148,1.067-5.625,3.129C39.273,10.219,38.547,13.922,38.547,19.055z"/>
	<path fill="#40220F" d="M94.727,18.949c-1.547,0-2.473,0.082-2.777,0.246c-0.328,0.211-0.492,0.539-0.492,0.984v11.602H89.98
		c-0.117-1.172-0.246-1.945-0.387-2.32c-0.141-0.352-0.328-0.527-0.563-0.527c-0.445,0.023-1.195,0.363-2.25,1.02
		c-2.039,1.383-4.395,2.074-7.066,2.074c-4.852,0-8.648-1.301-11.391-3.902c-2.977-2.695-4.465-5.906-4.465-9.633
		c0.023-4.383,1.523-8.063,4.5-11.039c2.672-2.742,6.398-4.113,11.18-4.113c1.875,0,3.703,0.258,5.484,0.773
		c1.313,0.399,2.262,0.598,2.848,0.598c0.563,0,0.832-0.457,0.809-1.371h1.477l0.527,11.883h-1.477
		c-1.078-3.352-2.496-5.953-4.254-7.805c-1.617-1.734-3.422-2.602-5.414-2.602c-2.414,0.023-4.477,1.243-6.188,3.656
		c-1.711,2.438-2.566,5.777-2.566,10.02c0.023,3.656,0.891,6.574,2.602,8.754c1.734,2.203,3.844,3.305,6.328,3.305
		c1.688,0,3.023-0.492,4.008-1.477c0.891-0.891,1.336-1.945,1.336-3.164v-5.73c0-0.492-0.176-0.82-0.527-0.984
		c-0.422-0.164-1.383-0.246-2.883-0.246v-1.477h13.078V18.949z"/>
	<path fill="#40220F" d="M107.734,29.777c0.352,0.258,1.453,0.387,3.305,0.387v1.477H97.012v-1.477
		c1.828-0.023,2.93-0.152,3.305-0.387c0.328-0.234,0.492-0.527,0.492-0.879V6.082c0-0.375-0.211-0.609-0.633-0.703
		c-0.398-0.141-1.453-0.211-3.164-0.211V3.691h14.027v1.477c-1.594,0-2.613,0.07-3.059,0.211c-0.492,0.164-0.738,0.399-0.738,0.703
		v22.816C107.266,29.25,107.43,29.543,107.734,29.777z"/>
	<path fill="#40220F" d="M143.629,5.168c-1.758,0-2.813,0.153-3.164,0.457c-0.352,0.352-0.527,0.786-0.527,1.301v23.133
		l-2.602,1.582L118.844,7.629v21.059c0,0.375,0.176,0.715,0.527,1.02s1.406,0.457,3.164,0.457v1.477h-9v-1.477
		c1.781-0.023,2.859-0.188,3.234-0.492c0.398-0.305,0.598-0.633,0.598-0.984V6.715c0-0.281-0.188-0.609-0.563-0.984
		c-0.398-0.375-1.488-0.563-3.27-0.563V3.691h2.285h3.023h4.676l14.941,19.09V6.926c0-0.563-0.188-0.996-0.563-1.301
		c-0.352-0.304-1.406-0.457-3.164-0.457V3.691h8.895V5.168z"/>
</g>
</svg>
