<svg version="1.1" id="レイヤー_1" xmlns="http://www.w3.org/2000/svg" xmlns:xlink="http://www.w3.org/1999/xlink" x="0px"
	 y="0px" width="228px" height="36px" viewBox="0 0 228 36" enable-background="new 0 0 228 36" xml:space="preserve">
<g>
	<path fill="#40220F" d="M2.484,31.164c1.734-0.023,2.754-0.152,3.059-0.387c0.352-0.258,0.527-0.539,0.527-0.844v-11.18v-1.477
		V7.469c-0.023-0.492-0.188-0.82-0.492-0.984C5.203,6.273,4.172,6.168,2.484,6.168V4.691H6.07h6.398h2.883
		c4.805,0,8.203,0.575,10.195,1.723c2.109,1.032,3.164,2.719,3.164,5.063c-0.023,2.203-0.82,3.797-2.391,4.781
		c-1.313,0.773-3.563,1.441-6.75,2.004c1.711,0.234,3.07,0.609,4.078,1.125c1.805,0.914,3,2.813,3.586,5.695
		c0.258,1.289,0.563,2.145,0.914,2.566c0.305,0.328,0.574,0.492,0.809,0.492s0.434-0.246,0.598-0.738
		c0.234-0.492,0.398-1.418,0.492-2.777h1.477c-0.281,3.047-0.926,5.133-1.934,6.258c-1.055,1.172-2.402,1.758-4.043,1.758
		c-1.242-0.023-2.297-0.469-3.164-1.336c-0.961-0.961-1.594-3.035-1.898-6.223c-0.305-2.297-0.961-3.984-1.969-5.063
		c-0.773-0.844-1.805-1.266-3.094-1.266h-2.953v11.18c0,0.469,0.152,0.785,0.457,0.949c0.375,0.188,1.418,0.281,3.129,0.281v1.477
		H2.484V31.164z M12.469,17.277h2.953c2.414-0.023,4.09-0.504,5.027-1.441c0.891-0.938,1.336-2.391,1.336-4.359
		c0-1.547-0.504-2.813-1.512-3.797c-1.008-1.007-2.648-1.512-4.922-1.512h-2.883V17.277z"/>
	<path fill="#40220F" d="M58.945,15.168h-1.477c-0.398-2.719-1.664-4.887-3.797-6.504C51.469,7,48.152,6.168,43.723,6.168v11.215
		h2.215c2.039-0.023,3.48-0.469,4.324-1.336c0.773-0.797,1.172-2.32,1.195-4.57h1.477v12.621h-1.477
		c0-2.273-0.434-3.738-1.301-4.395c-0.773-0.563-2.18-0.844-4.219-0.844h-2.215v12.305c4.43-0.023,7.734-0.926,9.914-2.707
		c1.898-1.594,3.281-4.008,4.148-7.242h1.477l-0.773,11.426H43.723h-10.02v-1.477c1.57-0.023,2.578-0.188,3.023-0.492
		c0.375-0.258,0.563-0.75,0.563-1.477V18.859v-1.477V7.785c-0.023-0.633-0.223-1.066-0.598-1.301
		c-0.422-0.211-1.418-0.316-2.988-0.316V4.691h3.586h6.434h14.766L58.945,15.168z"/>
	<path fill="#40220F" d="M93.082,19.949c-1.547,0-2.473,0.082-2.777,0.246c-0.328,0.211-0.492,0.539-0.492,0.984v11.602h-1.477
		c-0.117-1.172-0.246-1.945-0.387-2.32c-0.141-0.352-0.328-0.527-0.563-0.527c-0.445,0.023-1.195,0.363-2.25,1.02
		c-2.039,1.383-4.395,2.074-7.066,2.074c-4.852,0-8.648-1.301-11.391-3.902c-2.977-2.695-4.465-5.906-4.465-9.633
		c0.023-4.383,1.523-8.063,4.5-11.039c2.672-2.742,6.398-4.113,11.18-4.113c1.875,0,3.703,0.258,5.484,0.773
		c1.313,0.399,2.262,0.598,2.848,0.598c0.563,0,0.832-0.457,0.809-1.371h1.477l0.527,11.883h-1.477
		c-1.078-3.352-2.496-5.953-4.254-7.805c-1.617-1.734-3.422-2.602-5.414-2.602c-2.414,0.023-4.477,1.243-6.188,3.656
		c-1.711,2.438-2.566,5.777-2.566,10.02c0.023,3.656,0.891,6.574,2.602,8.754c1.734,2.203,3.844,3.305,6.328,3.305
		c1.688,0,3.023-0.492,4.008-1.477c0.891-0.891,1.336-1.945,1.336-3.164v-5.73c0-0.492-0.176-0.82-0.527-0.984
		c-0.422-0.164-1.383-0.246-2.883-0.246v-1.477h13.078V19.949z"/>
	<path fill="#40220F" d="M106.09,30.777c0.352,0.258,1.453,0.387,3.305,0.387v1.477H95.367v-1.477
		c1.828-0.023,2.93-0.152,3.305-0.387c0.328-0.234,0.492-0.527,0.492-0.879V7.082c0-0.375-0.211-0.609-0.633-0.703
		c-0.398-0.141-1.453-0.211-3.164-0.211V4.691h14.027v1.477c-1.594,0-2.613,0.07-3.059,0.211c-0.492,0.164-0.738,0.399-0.738,0.703
		v22.816C105.621,30.25,105.785,30.543,106.09,30.777z"/>
	<path fill="#40220F" d="M132.07,14.852c-0.914-2.836-2.262-5.109-4.043-6.82c-1.594-1.477-3.422-2.215-5.484-2.215
		c-1.688,0.023-3.059,0.399-4.113,1.125c-0.938,0.68-1.406,1.489-1.406,2.426c0,1.078,0.457,1.981,1.371,2.707
		c0.938,0.75,2.684,1.477,5.238,2.18c5.391,1.477,8.73,3,10.02,4.57c1.078,1.266,1.617,2.93,1.617,4.992
		c-0.023,2.602-0.926,4.793-2.707,6.574c-1.781,1.758-4.195,2.637-7.242,2.637c-2.297,0-4.582-0.539-6.855-1.617
		c-1.219-0.539-2.039-0.809-2.461-0.809c-0.609,0-1.09,0.68-1.441,2.039h-1.301l-0.563-11.988H114
		c0.797,2.906,2.227,5.426,4.289,7.559c2.156,2.227,4.5,3.34,7.031,3.34c1.406-0.094,2.719-0.574,3.938-1.441
		c1.125-0.797,1.688-1.734,1.688-2.813c-0.023-1.031-0.434-1.863-1.23-2.496c-0.938-0.82-2.965-1.664-6.082-2.531
		c-4.125-1.219-6.867-2.648-8.227-4.289c-1.219-1.383-1.828-3.211-1.828-5.484c0.023-2.297,0.855-4.23,2.496-5.801
		c1.688-1.57,3.844-2.355,6.469-2.355c2.156,0.023,4.02,0.399,5.59,1.125c1.125,0.54,1.91,0.809,2.355,0.809
		c0.469,0,0.82-0.527,1.055-1.582h1.301l0.527,10.16H132.07z"/>
	<path fill="#40220F" d="M155.555,30.777c0.398,0.258,1.441,0.387,3.129,0.387v1.477h-13.57v-1.477c1.711,0,2.754-0.117,3.129-0.352
		c0.305-0.234,0.457-0.609,0.457-1.125V6.449c-2.508,0.375-4.266,1.243-5.273,2.602c-1.711,2.203-2.883,4.512-3.516,6.926h-1.301
		l0.422-11.285h9.668h3.656h2.777h10.266l0.422,11.285h-1.301c-0.938-2.977-2.156-5.391-3.656-7.242
		c-1.195-1.313-3.105-2.109-5.73-2.391v23.344C155.133,30.25,155.273,30.613,155.555,30.777z"/>
	<path fill="#40220F" d="M193.945,15.168h-1.477c-0.398-2.719-1.664-4.887-3.797-6.504c-2.203-1.664-5.52-2.496-9.949-2.496v11.215
		h2.215c2.039-0.023,3.48-0.469,4.324-1.336c0.773-0.797,1.172-2.32,1.195-4.57h1.477v12.621h-1.477
		c0-2.273-0.434-3.738-1.301-4.395c-0.773-0.563-2.18-0.844-4.219-0.844h-2.215v12.305c4.43-0.023,7.734-0.926,9.914-2.707
		c1.898-1.594,3.281-4.008,4.148-7.242h1.477l-0.773,11.426h-14.766h-10.02v-1.477c1.57-0.023,2.578-0.188,3.023-0.492
		c0.375-0.258,0.563-0.75,0.563-1.477V18.859v-1.477V7.785c-0.023-0.633-0.223-1.066-0.598-1.301
		c-0.422-0.211-1.418-0.316-2.988-0.316V4.691h3.586h6.434h14.766L193.945,15.168z"/>
	<path fill="#40220F" d="M197.109,31.164c1.734-0.023,2.754-0.152,3.059-0.387c0.352-0.258,0.527-0.539,0.527-0.844v-11.18v-1.477
		V7.469c-0.023-0.492-0.188-0.82-0.492-0.984c-0.375-0.211-1.406-0.316-3.094-0.316V4.691h3.586h6.398h2.883
		c4.805,0,8.203,0.575,10.195,1.723c2.109,1.032,3.164,2.719,3.164,5.063c-0.023,2.203-0.82,3.797-2.391,4.781
		c-1.313,0.773-3.563,1.441-6.75,2.004c1.711,0.234,3.07,0.609,4.078,1.125c1.805,0.914,3,2.813,3.586,5.695
		c0.258,1.289,0.563,2.145,0.914,2.566c0.305,0.328,0.574,0.492,0.809,0.492s0.434-0.246,0.598-0.738
		c0.234-0.492,0.398-1.418,0.492-2.777h1.477c-0.281,3.047-0.926,5.133-1.934,6.258c-1.055,1.172-2.402,1.758-4.043,1.758
		c-1.242-0.023-2.297-0.469-3.164-1.336c-0.961-0.961-1.594-3.035-1.898-6.223c-0.305-2.297-0.961-3.984-1.969-5.063
		c-0.773-0.844-1.805-1.266-3.094-1.266h-2.953v11.18c0,0.469,0.152,0.785,0.457,0.949c0.375,0.188,1.418,0.281,3.129,0.281v1.477
		h-13.57V31.164z M207.094,17.277h2.953c2.414-0.023,4.09-0.504,5.027-1.441c0.891-0.938,1.336-2.391,1.336-4.359
		c0-1.547-0.504-2.813-1.512-3.797c-1.008-1.007-2.648-1.512-4.922-1.512h-2.883V17.277z"/>
</g>
</svg>
